<mxfile host="app.diagrams.net" modified="2021-05-03T03:35:06.088Z" agent="5.0 (Windows NT 10.0; Win64; x64) AppleWebKit/537.36 (KHTML, like Gecko) Chrome/90.0.4430.93 Safari/537.36" etag="K4q-jfOCamFjz7BnRvzN" version="14.6.1" type="github">
  <diagram id="N_tvyE1F5_6_9BbMXx5i" name="Page-1">
    <mxGraphModel dx="1422" dy="794" grid="1" gridSize="10" guides="1" tooltips="1" connect="1" arrows="1" fold="1" page="1" pageScale="1" pageWidth="827" pageHeight="1169" math="0" shadow="0">
      <root>
        <mxCell id="0" />
        <mxCell id="1" parent="0" />
        <mxCell id="nMQTYCtWLSwN4tGpHPeB-1" value="" style="rounded=0;whiteSpace=wrap;html=1;" vertex="1" parent="1">
          <mxGeometry x="260" y="190" width="840" height="450" as="geometry" />
        </mxCell>
        <mxCell id="nMQTYCtWLSwN4tGpHPeB-2" value="사용자" style="shape=umlActor;verticalLabelPosition=bottom;verticalAlign=top;html=1;outlineConnect=0;" vertex="1" parent="1">
          <mxGeometry x="170" y="335" width="30" height="60" as="geometry" />
        </mxCell>
        <mxCell id="nMQTYCtWLSwN4tGpHPeB-5" value="블루투스 활성화/비활성화" style="ellipse;whiteSpace=wrap;html=1;" vertex="1" parent="1">
          <mxGeometry x="280" y="340" width="150" height="50" as="geometry" />
        </mxCell>
        <mxCell id="nMQTYCtWLSwN4tGpHPeB-6" value="사용자 권한 부여" style="ellipse;whiteSpace=wrap;html=1;" vertex="1" parent="1">
          <mxGeometry x="520" y="210" width="150" height="50" as="geometry" />
        </mxCell>
        <mxCell id="nMQTYCtWLSwN4tGpHPeB-8" value="" style="endArrow=classic;html=1;entryX=0;entryY=0.5;entryDx=0;entryDy=0;exitX=1;exitY=0;exitDx=0;exitDy=0;" edge="1" parent="1" source="nMQTYCtWLSwN4tGpHPeB-5" target="nMQTYCtWLSwN4tGpHPeB-6">
          <mxGeometry width="50" height="50" relative="1" as="geometry">
            <mxPoint x="500" y="340" as="sourcePoint" />
            <mxPoint x="550" y="290" as="targetPoint" />
          </mxGeometry>
        </mxCell>
        <mxCell id="nMQTYCtWLSwN4tGpHPeB-9" value="&amp;lt;&amp;lt;include&amp;gt;&amp;gt;" style="text;html=1;strokeColor=none;fillColor=none;align=center;verticalAlign=middle;whiteSpace=wrap;rounded=0;rotation=-45;" vertex="1" parent="1">
          <mxGeometry x="430" y="270" width="40" height="20" as="geometry" />
        </mxCell>
        <mxCell id="nMQTYCtWLSwN4tGpHPeB-11" value="블루투스 장치스캔" style="ellipse;whiteSpace=wrap;html=1;" vertex="1" parent="1">
          <mxGeometry x="490" y="405" width="150" height="50" as="geometry" />
        </mxCell>
        <mxCell id="nMQTYCtWLSwN4tGpHPeB-12" value="블루투스 페어링" style="ellipse;whiteSpace=wrap;html=1;" vertex="1" parent="1">
          <mxGeometry x="720" y="480" width="150" height="50" as="geometry" />
        </mxCell>
        <mxCell id="nMQTYCtWLSwN4tGpHPeB-13" value="페어링된 장치와 데이터 송수신" style="ellipse;whiteSpace=wrap;html=1;" vertex="1" parent="1">
          <mxGeometry x="930" y="540" width="150" height="50" as="geometry" />
        </mxCell>
        <mxCell id="nMQTYCtWLSwN4tGpHPeB-16" value="" style="endArrow=none;html=1;entryX=0;entryY=0.5;entryDx=0;entryDy=0;" edge="1" parent="1" source="nMQTYCtWLSwN4tGpHPeB-2" target="nMQTYCtWLSwN4tGpHPeB-5">
          <mxGeometry width="50" height="50" relative="1" as="geometry">
            <mxPoint x="390" y="420" as="sourcePoint" />
            <mxPoint x="440" y="370" as="targetPoint" />
          </mxGeometry>
        </mxCell>
        <mxCell id="nMQTYCtWLSwN4tGpHPeB-17" value="" style="endArrow=classic;html=1;entryX=1;entryY=1;entryDx=0;entryDy=0;exitX=0;exitY=0;exitDx=0;exitDy=0;" edge="1" parent="1" source="nMQTYCtWLSwN4tGpHPeB-11" target="nMQTYCtWLSwN4tGpHPeB-5">
          <mxGeometry width="50" height="50" relative="1" as="geometry">
            <mxPoint x="418.0330085889909" y="357.3223304703363" as="sourcePoint" />
            <mxPoint x="580.5" y="235" as="targetPoint" />
          </mxGeometry>
        </mxCell>
        <mxCell id="nMQTYCtWLSwN4tGpHPeB-18" value="&amp;lt;&amp;lt;extends&amp;gt;&amp;gt;" style="text;html=1;strokeColor=none;fillColor=none;align=center;verticalAlign=middle;whiteSpace=wrap;rounded=0;rotation=15;" vertex="1" parent="1">
          <mxGeometry x="450" y="380" width="40" height="20" as="geometry" />
        </mxCell>
        <mxCell id="nMQTYCtWLSwN4tGpHPeB-19" value="" style="endArrow=classic;html=1;entryX=1;entryY=1;entryDx=0;entryDy=0;exitX=0;exitY=0;exitDx=0;exitDy=0;" edge="1" parent="1" source="nMQTYCtWLSwN4tGpHPeB-12" target="nMQTYCtWLSwN4tGpHPeB-11">
          <mxGeometry width="50" height="50" relative="1" as="geometry">
            <mxPoint x="521.9669914110091" y="422.3223304703365" as="sourcePoint" />
            <mxPoint x="418.0330085889909" y="392.6776695296637" as="targetPoint" />
          </mxGeometry>
        </mxCell>
        <mxCell id="nMQTYCtWLSwN4tGpHPeB-20" value="&amp;lt;&amp;lt;extends&amp;gt;&amp;gt;" style="text;html=1;strokeColor=none;fillColor=none;align=center;verticalAlign=middle;whiteSpace=wrap;rounded=0;rotation=15;" vertex="1" parent="1">
          <mxGeometry x="660" y="450" width="40" height="20" as="geometry" />
        </mxCell>
        <mxCell id="nMQTYCtWLSwN4tGpHPeB-23" value="" style="endArrow=classic;html=1;exitX=0;exitY=0;exitDx=0;exitDy=0;" edge="1" parent="1" source="nMQTYCtWLSwN4tGpHPeB-13">
          <mxGeometry width="50" height="50" relative="1" as="geometry">
            <mxPoint x="751.9669914110091" y="497.3223304703363" as="sourcePoint" />
            <mxPoint x="850" y="520" as="targetPoint" />
          </mxGeometry>
        </mxCell>
        <mxCell id="nMQTYCtWLSwN4tGpHPeB-24" value="&amp;lt;&amp;lt;extends&amp;gt;&amp;gt;" style="text;html=1;strokeColor=none;fillColor=none;align=center;verticalAlign=middle;whiteSpace=wrap;rounded=0;rotation=15;" vertex="1" parent="1">
          <mxGeometry x="890" y="510" width="40" height="20" as="geometry" />
        </mxCell>
        <mxCell id="nMQTYCtWLSwN4tGpHPeB-26" value="&amp;lt;&amp;lt;블루투스 조명 제어 어플&amp;gt;&amp;gt;" style="text;html=1;strokeColor=none;fillColor=none;align=center;verticalAlign=middle;whiteSpace=wrap;rounded=0;rotation=0;" vertex="1" parent="1">
          <mxGeometry x="570" y="160" width="220" height="20" as="geometry" />
        </mxCell>
      </root>
    </mxGraphModel>
  </diagram>
</mxfile>
